<svg width="162" height="31" viewBox="0 0 162 31" fill="none" xmlns="http://www.w3.org/2000/svg">
<path d="M0 0H11.8766C14.1389 0 15.8355 0.567781 17.0923 1.51408C18.4748 2.64964 19.2289 4.2899 19.2289 6.30867C19.2289 8.64288 18.2863 10.0939 16.4011 10.9771V11.1033C18.9147 11.9234 20.36 14.1945 20.36 16.9072C20.36 19.4938 19.3545 21.5126 17.7207 22.7743C16.3382 23.7837 14.5787 24.2253 12.1908 24.2253H0V0ZM10.6827 9.46301C11.9395 9.46301 12.8821 8.76905 12.8821 7.31806C12.8821 5.93015 11.9395 5.2362 10.6199 5.2362H6.5353V9.39992H10.6827V9.46301ZM11.2483 18.8629C12.6936 18.8629 13.7618 17.9797 13.7618 16.4025C13.7618 14.6992 12.6307 13.9422 11.2483 13.9422H6.59814V18.926H11.2483V18.8629Z" fill="white"/>
<path d="M21.4277 0H27.6488V24.2884H21.4277V0Z" fill="white"/>
<path d="M28.9062 15.6456C28.9062 10.157 32.4253 6.49799 37.8923 6.49799C43.3593 6.49799 46.8155 10.2201 46.8155 15.6456C46.8155 21.1341 43.3593 24.7931 37.8923 24.7931C32.4253 24.7931 28.9062 21.1341 28.9062 15.6456ZM40.5944 15.6456C40.5944 12.6174 39.6518 10.7248 37.7666 10.7248C35.8814 10.7248 35.0017 12.6174 35.0017 15.6456C35.0017 18.6737 35.8814 20.6294 37.7666 20.6294C39.6518 20.5663 40.5944 18.6737 40.5944 15.6456Z" fill="white"/>
<path d="M47.5078 15.6456C47.5078 10.157 51.0268 6.49799 56.4938 6.49799C61.9609 6.49799 65.3542 10.157 65.3542 15.6456C65.3542 21.1341 61.898 24.7931 56.431 24.7931C51.0268 24.7931 47.5078 21.1341 47.5078 15.6456ZM59.1959 15.6456C59.1959 12.6174 58.2533 10.7248 56.3682 10.7248C54.483 10.7248 53.6032 12.6174 53.6032 15.6456C53.6032 18.6737 54.483 20.6294 56.3682 20.6294C58.2533 20.5663 59.1959 18.6737 59.1959 15.6456Z" fill="white"/>
<path d="M66.6094 6.93926H72.3906V9.52582H72.5163C73.6474 7.50704 75.2184 6.43457 77.7319 6.43457C79.9313 6.43457 81.5652 7.50704 82.3821 9.39965H82.5077C83.8902 7.12852 85.7126 6.43457 87.8491 6.43457C91.8708 6.43457 93.5675 9.39964 93.5675 13.3741V24.225H87.5349V14.4466C87.5349 12.6802 86.9693 11.5446 85.4612 11.5446C83.9531 11.5446 83.199 12.9325 83.199 14.8251V24.225H77.1664V14.4466C77.1664 12.6802 76.6008 11.5446 75.0927 11.5446C73.5845 11.5446 72.8305 12.9325 72.8305 14.8251V24.225H66.6094V6.93926Z" fill="white"/>
<path d="M101.172 21.9542H101.109V24.2253H95.3281V0H101.361V8.70597H101.486C102.617 7.19188 104.188 6.37176 106.388 6.37176C110.724 6.37176 113.237 10.2831 113.237 15.5193C113.237 21.3864 110.535 24.7931 106.011 24.7931C104.126 24.7931 102.178 23.9099 101.172 21.9542ZM107.016 15.4562C107.016 12.6804 106.011 10.8509 104.188 10.8509C102.303 10.8509 101.172 12.6804 101.172 15.4562C101.172 18.2321 102.366 20.0616 104.188 20.0616C106.011 20.0616 107.016 18.2951 107.016 15.4562Z" fill="white"/>
<path d="M113.928 15.5821C113.928 10.1567 117.51 6.43457 122.662 6.43457C125.239 6.43457 127.187 7.2547 128.695 8.70569C130.706 10.6614 131.586 13.6895 131.523 17.2224H119.96C120.212 19.3673 121.217 20.5029 123.039 20.5029C124.108 20.5029 125.05 19.9982 125.427 18.8626H131.271C130.266 22.8371 127.187 24.7928 122.851 24.7928C117.51 24.7297 113.928 21.0707 113.928 15.5821ZM119.96 13.7526H125.49C125.365 11.6708 124.233 10.5983 122.788 10.5983C121.091 10.5352 120.149 11.7339 119.96 13.7526Z" fill="white"/>
<path d="M138.371 9.90512H138.497C139.754 7.50782 141.387 6.56152 143.461 6.56152C143.964 6.56152 144.278 6.62461 144.466 6.75078V12.0501H144.341C140.759 11.4192 138.685 13.1225 138.685 17.0339V24.2889H132.59V6.94004H138.371V9.90512Z" fill="white"/>
<path d="M145.093 24.2887H150.938C151.189 25.0457 151.943 25.7397 153.388 25.7397C155.336 25.7397 156.028 24.541 156.028 22.7115V21.4498H155.902C154.959 22.5854 153.64 23.4055 151.754 23.4055C148.047 23.4055 144.779 20.6297 144.779 15.2042C144.779 10.2204 147.419 6.37207 151.44 6.37207C153.765 6.37207 155.148 7.31837 156.09 8.76936H156.216V6.87676H161.997V21.8914C161.997 24.6672 161.055 26.8122 159.609 28.0739C158.101 29.3987 155.965 29.9665 153.514 29.9665C148.864 30.0296 145.659 28.137 145.093 24.2887ZM156.279 14.9519C156.279 12.8069 155.273 11.0405 153.514 11.0405C151.817 11.0405 150.749 12.5546 150.749 14.9519C150.749 17.2861 151.817 18.9263 153.514 18.9263C155.211 18.9263 156.279 17.223 156.279 14.9519Z" fill="white"/>
</svg>
