<svg width="148" height="46" viewBox="0 0 148 46" fill="none" xmlns="http://www.w3.org/2000/svg">
<g clip-path="url(#clip0_644_1412)">
<path fill-rule="evenodd" clip-rule="evenodd" d="M11.4722 45.9806H14.915V27.5884H11.4722V45.9806ZM24.0924 45.7047H27.176V34.1004L40.1554 45.9806V27.8642H37.0805V39.2703L24.0924 27.5884V45.7047ZM47.1948 41.2503C48.8731 42.5579 50.8876 43.3137 53.0472 43.3137C55.1508 43.3137 56.6265 42.5895 56.6265 40.9903C56.6265 39.5965 55.6854 39.0505 54.0372 38.4398L51.3689 37.513C48.909 36.6393 47.0381 35.3634 47.0381 32.4307C47.0381 29.2939 49.8703 27.5884 53.257 27.5884C55.3319 27.5884 57.2228 28.1099 58.7 29.0339V32.1447C57.1639 31.0096 55.4828 30.2279 53.3231 30.2279C51.4638 30.2279 50.0743 30.9219 50.0743 32.3689C50.0743 33.6765 50.9465 34.1995 52.4825 34.7254L55.4555 35.7686C58.3364 36.7816 59.6584 38.3521 59.6584 40.9357C59.6584 44.1859 56.799 45.9806 53.0472 45.9806C50.5815 45.9806 48.4851 45.2909 47.1948 44.4201V41.2503ZM67.6906 45.9806H71.132V27.5884H67.6906V45.9806ZM87.2769 43.1973C91.1565 43.1973 93.2299 40.7086 93.2299 36.7802C93.2299 32.823 91.1551 30.3429 87.2769 30.3429H83.4404V43.1973H87.2769ZM80.308 27.5884H87.3918C92.8449 27.5884 96.371 31.1806 96.371 36.7802C96.371 42.384 92.8449 45.9806 87.3918 45.9806H80.308V27.5884ZM113.582 27.5884V30.3429H105.252V34.7685H112.723V37.4914H105.251V43.1973H113.582V45.9806H102.108V27.5884H113.582ZM125.799 35.9166H129.214C131.236 35.9166 132.375 34.8073 132.375 33.1017C132.375 31.3961 131.236 30.2854 129.214 30.2854H125.799V35.9166ZM125.799 38.5174V45.9806H122.76V27.5884H129.272C132.984 27.5884 135.387 29.5009 135.387 33.1017C135.387 36.181 134.054 37.9498 131.213 38.4038L137.674 45.9806H134.217L127.961 38.5188H125.8L125.799 38.5174ZM10.2695 9.46913C11.6158 8.97627 12.6648 7.49771 12.6648 5.46451C12.6648 2.07631 10.2695 0.320427 6.43728 0.320427H0V19.2343H7.03503C10.8672 19.2343 13.2625 17.3548 13.2625 13.8129C13.2625 11.8098 12.0052 10.0539 10.2695 9.46913ZM3.02322 8.26788V3.09363H6.40854C8.53515 3.09363 9.67173 3.86381 9.67173 5.64986C9.67173 7.43592 8.53371 8.26788 6.40854 8.26788H3.02322ZM3.02322 10.9175H6.97468C9.07254 10.9175 10.2091 11.9636 10.2091 13.6893C10.2091 15.3834 9.07111 16.4625 6.97612 16.4625H3.02466V10.9161L3.02322 10.9175ZM27.3082 19.5417C31.7094 19.5417 34.6737 16.8921 34.6737 11.7179V0.320427H31.5599V11.3471C31.5599 14.9825 30.0627 16.678 27.3082 16.678C24.5536 16.678 23.0578 14.9825 23.0578 11.3471V0.320427H19.9441V11.6863C19.9441 16.8921 22.9371 19.5417 27.3082 19.5417ZM42.0047 17.8778C43.2922 18.8032 45.3886 19.5417 47.8428 19.5417C51.5859 19.5417 54.4295 17.6307 54.4295 14.1821C54.4295 11.4405 53.1133 9.77662 50.2381 8.69895L47.2752 7.58967C45.7478 7.03647 44.8799 6.48183 44.8799 5.09522C44.8799 3.55487 46.2565 2.81631 48.1129 2.81631C50.2683 2.81631 51.9451 3.64684 53.4725 4.84951V1.55184C52.0055 0.567573 50.1188 0.012932 48.0526 0.012932C44.6701 0.012932 41.8553 1.8306 41.8553 5.15701C41.8553 8.26788 43.7117 9.62288 46.1659 10.5468L48.8314 11.5325C50.4781 12.1791 51.4063 12.7654 51.4063 14.2439C51.4063 15.938 49.9392 16.7082 47.8428 16.7082C45.6875 16.7082 43.6816 15.9064 42.0047 14.5212V17.8778ZM65.5554 0.320427H62.4431V19.2328H65.5554V0.320427ZM74.4383 19.2098H77.4385V6.90571L90.0659 19.503V0.291689H87.0743V12.386L74.4383 0V19.2098ZM109.523 0.324738V3.15685H101.439V7.70893H108.688V10.5094H101.439V16.3763H109.523V19.2386H98.387V0.324738H109.523ZM116.772 17.8649C118.059 18.7903 120.154 19.5288 122.61 19.5288C126.352 19.5288 129.197 17.6192 129.197 14.1692C129.197 11.4276 127.879 9.76513 125.005 8.68602L122.041 7.57818C120.514 7.02353 119.646 6.46889 119.646 5.08229C119.646 3.54194 121.022 2.80338 122.879 2.80338C125.034 2.80338 126.711 3.63534 128.238 4.83658V1.54035C126.771 0.554641 124.885 0 122.818 0C119.436 0 116.621 1.81767 116.621 5.14408C116.621 8.25495 118.478 9.60994 120.932 10.5339L123.597 11.5196C125.244 12.1662 126.172 12.7524 126.172 14.231C126.172 15.9251 124.707 16.6953 122.609 16.6953C120.453 16.6953 118.447 15.8949 116.772 14.5083V17.8649ZM135.575 17.8649C136.863 18.7903 138.959 19.5288 141.413 19.5288C145.156 19.5288 148 17.6192 148 14.1692C148 11.4276 146.682 9.76513 143.809 8.68602L140.844 7.57818C139.318 7.02353 138.449 6.46889 138.449 5.08229C138.449 3.54194 139.827 2.80338 141.682 2.80338C143.837 2.80338 145.516 3.63534 147.042 4.83658V1.54035C145.576 0.554641 143.689 0 141.623 0C138.239 0 135.426 1.81767 135.426 5.14408C135.426 8.25495 137.282 9.60994 139.736 10.5339L142.402 11.5196C144.049 12.1662 144.977 12.7524 144.977 14.231C144.977 15.9251 143.51 16.6953 141.413 16.6953C139.258 16.6953 137.252 15.8949 135.575 14.5083V17.8649Z" fill="white"/>
</g>
<defs>
<clipPath id="clip0_644_1412">
<rect width="148" height="45.9806" fill="white"/>
</clipPath>
</defs>
</svg>
