<svg width="136" height="50" viewBox="0 0 136 50" fill="none" xmlns="http://www.w3.org/2000/svg">
<g clip-path="url(#clip0_644_1431)">
<path fill-rule="evenodd" clip-rule="evenodd" d="M48.7534 14.9984V29.9968H56.1315V24.2787C56.1315 20.4974 56.1546 18.4223 56.1891 18.1456C56.2698 17.5577 56.4773 16.9928 56.754 16.5662C57.2613 15.8054 57.9876 15.4595 58.9905 15.5172C60.2817 15.5863 61.0426 16.3472 61.2616 17.7998C61.2962 18.0188 61.3193 20.2899 61.3193 24.0712V29.9968H68.6974V23.0913C68.6974 17.2695 68.6859 16.0705 68.6167 15.4941C68.3746 13.419 67.6714 11.8166 66.484 10.6176C65.4579 9.59159 64.1898 8.98059 62.622 8.77308C62.011 8.69238 60.4777 8.73849 59.9359 8.85378C58.5986 9.14198 57.5495 9.70687 56.6042 10.6522L56.0854 11.171V0H48.7649V14.9984H48.7534ZM127.181 0.230567C126.985 0.691701 119.48 18.8258 119.48 18.8489C119.48 18.8604 121.44 18.8719 123.849 18.8604H128.218L132.103 9.46478C134.248 4.30008 136 0.0576418 136 0.0345851C136 0.0115284 134.04 0 131.642 0H127.285L127.181 0.230567ZM32.5791 8.75002C30.9536 8.99212 29.72 9.44172 28.4865 10.2602C26.0079 11.8973 24.3132 14.6756 23.8406 17.8805C23.6215 19.3561 23.7138 21.2237 24.0827 22.6532C24.9934 26.2501 27.4028 28.9938 30.5847 30.0544C31.7375 30.4349 32.164 30.504 33.582 30.504C34.6081 30.504 34.9193 30.4925 35.2882 30.4118C36.7754 30.089 37.8706 29.5241 38.7813 28.6134L39.254 28.1407V30.0083H46.367V9.19963H39.254V11.1133L38.9197 10.7675C38.0666 9.86827 36.9022 9.24574 35.4612 8.89989C34.977 8.78461 34.7464 8.76155 33.8357 8.75002C33.2477 8.75002 32.6944 8.75002 32.6021 8.75002H32.5791ZM79.6839 8.80766C77.6665 9.07281 75.626 9.94897 74.1273 11.171C71.1875 13.5573 69.758 17.3963 70.3344 21.339C70.9685 25.6852 74.0466 29.086 78.3466 30.1928C79.315 30.4349 80.1796 30.5386 81.3325 30.5386C83.3499 30.5386 84.8832 30.1928 86.5664 29.3627C89.7366 27.7949 91.8463 24.8436 92.3651 21.2583C92.4919 20.3937 92.4919 18.8604 92.3651 18.0073C92.1 16.2319 91.4429 14.5718 90.4284 13.1654C90.0249 12.6005 89.0104 11.5399 88.457 11.1133C86.8546 9.86827 84.9754 9.08434 82.9349 8.81919C82.1164 8.71544 80.5024 8.71544 79.6954 8.81919L79.6839 8.80766ZM103.156 8.80766C101.161 9.07281 99.2821 9.86827 97.7027 11.1018C97.1494 11.5284 96.1349 12.589 95.7314 13.1539C94.7169 14.5603 94.0598 16.2204 93.7946 17.9958C93.6678 18.8489 93.6678 20.3821 93.7946 21.2468C94.4633 25.8696 97.8065 29.3973 102.383 30.308C103.259 30.481 103.767 30.5271 104.816 30.5271C106.81 30.5271 108.528 30.1351 110.153 29.2935C114.477 27.0686 116.701 22.2843 115.71 17.3271C114.799 12.7504 111.156 9.43019 106.372 8.80766C105.588 8.70391 103.963 8.70391 103.156 8.80766ZM-6.10352e-05 9.22268C-6.10352e-05 9.22268 1.99434 13.9493 4.4153 19.6789C6.84778 25.42 8.83066 30.1351 8.83066 30.1697C8.83066 30.2043 8.1159 31.9105 7.23975 33.9625C6.36359 36.0146 5.66036 37.7092 5.66036 37.7208C5.66036 37.7323 7.4242 37.7323 9.58 37.7208H13.4996L19.3906 23.5178C22.6301 15.7131 25.2816 9.29185 25.2816 9.25727C25.2816 9.19963 24.4977 9.1881 21.4081 9.19963H17.523L15.1367 15.2635C13.8224 18.5952 12.7388 21.3044 12.7272 21.2813C12.7157 21.2698 11.6436 18.5491 10.3409 15.229L7.98909 9.21115H4.00028C1.79836 9.1881 0.0114673 9.19963 0.0114673 9.21115L-6.10352e-05 9.22268ZM36.1874 15.5056C37.6631 15.84 38.839 17.0043 39.2425 18.5145C39.4039 19.114 39.4039 20.1054 39.2425 20.7049C38.839 22.2151 37.7207 23.3334 36.2105 23.7369C35.611 23.8983 34.6196 23.8983 34.0201 23.7369C32.7289 23.4026 31.6222 22.4457 31.1496 21.2583C30.6308 19.9556 30.7922 18.3186 31.5415 17.2234C32.5791 15.7247 34.3199 15.0791 36.1874 15.5056ZM82.1164 15.5287C83.7189 15.8169 84.9639 17.0043 85.3559 18.6413C85.4827 19.1832 85.4712 20.1631 85.3328 20.7165C84.9524 22.169 83.8687 23.2757 82.4392 23.6677C81.9435 23.8061 80.733 23.8061 80.2488 23.6677C79.0729 23.3449 78.1391 22.561 77.6319 21.4658C77.3321 20.8202 77.2399 20.4052 77.2399 19.6213C77.2399 18.918 77.3091 18.5606 77.5512 17.9612C77.8394 17.2349 78.3928 16.5547 79.0499 16.1282C79.903 15.5633 81.0673 15.3442 82.1279 15.5287H82.1164ZM105.577 15.5287C106.948 15.7708 108.09 16.6815 108.597 17.9612C108.839 18.5606 108.908 18.918 108.908 19.6213C108.908 20.3937 108.816 20.8202 108.516 21.4658C108.009 22.5495 107.075 23.3449 105.899 23.6677C105.415 23.8061 104.193 23.7945 103.709 23.6677C102.291 23.2757 101.196 22.169 100.815 20.7165C100.654 20.117 100.654 19.1255 100.815 18.5261C101.311 16.6815 102.867 15.4711 104.781 15.448C105 15.448 105.358 15.4826 105.588 15.5172L105.577 15.5287ZM121.221 20.6703C119.088 20.9355 117.393 22.4688 116.932 24.5554C116.805 25.1318 116.817 26.1578 116.967 26.7458C117.416 28.5557 118.811 29.9046 120.621 30.285C120.852 30.3311 121.29 30.3657 121.624 30.3657C123.019 30.3657 124.126 29.9161 125.106 28.9246C126.097 27.9332 126.547 26.8495 126.547 25.42C126.547 23.6792 125.751 22.2267 124.299 21.339C123.446 20.8087 122.212 20.5435 121.221 20.6703ZM60.4546 31.9566C58.9675 32.4523 58.3219 34.1239 59.0943 35.4497C59.3018 35.7955 59.786 36.2221 60.1895 36.4181C60.5353 36.5795 60.5814 36.591 61.1924 36.591C61.8035 36.591 61.8496 36.591 62.1954 36.4181C62.6565 36.199 63.1753 35.7033 63.3828 35.2537C63.9477 34.0548 63.4289 32.6714 62.2069 32.0834C61.838 31.9105 61.7458 31.8874 61.2847 31.8759C60.8812 31.8644 60.6967 31.8759 60.4662 31.9566H60.4546ZM54.287 32.0719C52.3156 32.4638 51.0129 33.7204 50.5172 35.7148C50.448 36.0146 50.3904 36.4181 50.3788 36.9253L50.3443 37.6862H48.7534V39.4385L48.7764 41.1908H49.5603L50.3443 41.2254V49.5143H54.6213V41.2254H56.0739L57.5264 41.2023V39.45L57.5495 37.6977H54.5982L54.6328 37.3058C54.7135 36.4411 55.0594 35.9685 55.7395 35.761C56.2007 35.6226 56.8578 35.6457 57.3535 35.8186C57.5264 35.8762 57.6763 35.9339 57.6878 35.9339C57.6994 35.9339 57.7109 35.1269 57.7109 34.147V32.3601L57.3996 32.2448C56.8808 32.0488 56.3621 31.9797 55.5205 31.9797C54.9902 31.9797 54.5752 32.0142 54.2524 32.0834L54.287 32.0719ZM71.7985 37.4441C70.8993 37.6401 70.1615 38.0782 69.6888 38.7122L69.4468 39.035V37.6862H65.1121V49.5028H69.4468V46.2863C69.4468 44.4303 69.4698 42.9316 69.5044 42.7471C69.5736 42.3206 69.8272 41.8018 70.0693 41.6289C70.6918 41.1562 71.6833 41.26 72.0983 41.8595C72.4211 42.3321 72.4211 42.2629 72.4441 46.0558L72.4672 49.5143H76.7903V45.6408C76.7903 41.5251 76.7673 41.0525 76.5482 40.2801C76.3292 39.5307 76.041 39.035 75.5107 38.5047C75.0034 37.9975 74.5653 37.7323 73.9082 37.5478C73.3895 37.398 72.3288 37.3519 71.8216 37.4671L71.7985 37.4441ZM82.7274 37.4095C82.0242 37.5017 80.9866 37.9168 80.4333 38.3203C79.1767 39.231 78.3121 40.6605 78.0008 42.3206C77.8855 42.9777 77.8855 44.3035 78.0008 44.9375C78.2083 46.0097 78.6233 46.9665 79.2113 47.7389C79.9952 48.7765 81.1134 49.4797 82.3585 49.7333C83.0387 49.8717 84.1685 49.8486 84.7449 49.6757C85.402 49.4797 85.9554 49.1684 86.428 48.7304L86.8546 48.3269V49.5143H91.1316V37.6977H86.8546V38.9197L86.5779 38.62C86.013 38.0205 85.2175 37.617 84.3068 37.4556C83.8802 37.3865 83.0963 37.3634 82.7159 37.4095H82.7274ZM99.5127 37.4556C98.7518 37.617 97.8757 38.1473 97.4261 38.7468L97.2416 38.9889V37.6862H95.0628L92.8839 37.7092V43.6002L92.8608 49.4912H97.2416V46.1365C97.2416 42.5857 97.2416 42.5166 97.4952 42.0324C97.7258 41.5828 98.1754 41.3176 98.7057 41.3176C99.1668 41.3176 99.4205 41.4098 99.7087 41.6865C100.17 42.1477 100.158 41.9747 100.17 45.9751V49.4912H104.516L104.493 45.2027C104.47 40.9602 104.47 40.9026 104.355 40.453C104.285 40.1994 104.113 39.7498 103.963 39.45C103.744 39.0004 103.628 38.8275 103.282 38.4932C102.833 38.0436 102.452 37.7899 101.957 37.617C101.219 37.3519 100.251 37.2827 99.5012 37.4441L99.5127 37.4556ZM110.926 37.4556C109.024 37.7554 107.467 38.7814 106.533 40.3377C106.257 40.8104 106.038 41.3522 105.865 42.0093C105.726 42.5396 105.715 42.6664 105.715 43.5772C105.715 44.6493 105.761 45.0067 106.015 45.7791C106.672 47.7966 108.309 49.2261 110.499 49.7103C110.857 49.791 111.179 49.814 111.975 49.814C113.105 49.814 113.543 49.7333 114.384 49.399L114.811 49.2261V47.2432L114.834 45.2603L114.477 45.4678C113.958 45.7791 113.52 45.8944 112.863 45.929C112.182 45.9635 111.813 45.8944 111.318 45.6408C110.868 45.4102 110.511 45.0413 110.28 44.5571C110.119 44.2228 110.107 44.1536 110.107 43.6348C110.107 43.1737 110.13 43.0123 110.234 42.7702C110.591 41.8825 111.421 41.3522 112.54 41.3061C113.335 41.2715 113.658 41.3522 114.799 41.9171C114.822 41.9171 114.834 41.0525 114.834 39.9573V37.9859L114.488 37.8476C113.45 37.4326 112.079 37.2827 110.926 37.4671V37.4556ZM120.771 37.4556C117.474 38.032 115.307 40.9141 115.629 44.3035C115.745 45.5024 116.056 46.4362 116.632 47.3008C117.451 48.5344 118.684 49.3298 120.344 49.6987C121.059 49.8601 122.892 49.8371 123.665 49.6757C124.852 49.4105 125.913 48.8572 126.674 48.0963C127.031 47.7389 127.607 46.9665 127.561 46.9204C127.55 46.9089 126.72 46.5861 125.717 46.2056L123.895 45.5024L123.63 45.7791C123.296 46.1134 123.031 46.2748 122.616 46.3786C121.347 46.7129 120.068 46.0442 119.86 44.9375L119.814 44.6954H123.884L127.953 44.6724V43.6809C127.953 42.9431 127.919 42.5742 127.849 42.2399C127.561 40.9026 127.042 39.8881 126.189 39.0581C125.382 38.2626 124.472 37.7784 123.25 37.5017C122.708 37.3864 121.324 37.3519 120.771 37.4556ZM59.0136 43.6002V49.5028H63.3483V37.6862H59.0136V43.5887V43.6002ZM122.5 40.7412C122.8 40.8219 122.984 40.9257 123.261 41.1793C123.526 41.4214 123.676 41.6865 123.745 42.0093L123.791 42.2284H121.82C119.595 42.2284 119.768 42.2745 119.964 41.7672C120.287 40.9026 121.37 40.4645 122.5 40.7412ZM85.2406 41.3291C85.8285 41.479 86.4741 42.0093 86.7278 42.5627C87.3388 43.8539 86.7278 45.341 85.3905 45.8252C84.987 45.9751 84.2376 45.9866 83.8226 45.8598C83.1078 45.6408 82.4853 45.0182 82.2663 44.315C82.1741 44.0153 82.1625 43.8423 82.174 43.4734C82.1971 43.0584 82.2202 42.9546 82.3931 42.6088C82.9119 41.5597 84.0647 41.0525 85.2406 41.3522V41.3291Z" fill="white"/>
</g>
<defs>
<clipPath id="clip0_644_1431">
<rect width="136" height="49.814" fill="white"/>
</clipPath>
</defs>
</svg>
