<svg width="179" height="37" viewBox="0 0 179 37" fill="none" xmlns="http://www.w3.org/2000/svg">
<path d="M0.562009 25.2447C0.461216 26.0804 0.309388 26.9161 0.03125 27.7262C0.967733 28.7635 3.19539 29.3466 4.56311 29.3466C8.36135 29.3466 11.4502 26.9658 11.4502 22.9915C11.4502 17.0409 2.66463 19.118 2.66463 13.9775C2.66463 12.0038 4.25946 10.7113 6.18346 10.7113C7.82932 10.7113 9.04522 11.6236 9.62701 13.1418H9.90515C10.1335 12.3572 10.3364 11.5725 10.6656 10.8644C9.65253 9.95219 8.03218 9.52222 6.71549 9.52222C3.37273 9.52222 0.536491 11.2689 0.536491 14.8643C0.536491 21.1683 9.27104 18.8896 9.27104 24.0543C9.27104 26.2577 7.6507 28.1307 5.39753 28.1307C3.21963 28.1307 1.97949 27.0168 0.891181 25.2447H0.562009ZM25.0713 26.1556C24.3122 26.8905 22.8437 28.0809 20.9439 28.0809C17.5769 28.0809 15.88 25.3965 16.1339 22.2821H20.0585C21.9314 22.2821 23.8312 22.3076 25.7041 22.3587C25.9823 17.6992 23.1473 15.5226 20.0585 15.5226C15.9055 15.5226 13.6791 18.5094 13.6791 22.3842C13.6791 26.7132 16.412 29.2445 20.2613 29.2445C21.9582 29.2445 23.6781 28.5862 25.0458 27.5986L25.0713 26.1556ZM16.1339 21.2436C16.3113 18.9151 17.4506 16.3825 20.0585 16.3825C22.8181 16.3825 23.4765 18.8143 23.5518 21.2436H16.1339ZM39.2742 26.1556C38.5151 26.8905 37.0466 28.0809 35.1481 28.0809C31.7798 28.0809 30.0842 25.3965 30.3381 22.2821H34.2614C36.1356 22.2821 38.0341 22.3076 39.9083 22.3587C40.1865 17.6992 37.3502 15.5226 34.2614 15.5226C30.1097 15.5226 27.882 18.5094 27.882 22.3842C27.882 26.7132 30.6162 29.2445 34.4642 29.2445C36.1611 29.2445 37.8822 28.5862 39.2487 27.5986L39.2742 26.1556ZM30.3368 21.2436C30.5154 18.9151 31.6535 16.3825 34.2614 16.3825C37.021 16.3825 37.6807 18.8143 37.7559 21.2436H30.3368ZM44.4644 8.0805C44.0345 8.10602 43.7053 8.15705 43.3506 8.15705C42.9717 8.15705 42.5915 8.10602 42.2368 8.0805V29.0174C42.5915 28.9919 42.9717 28.9421 43.3506 28.9421C43.7053 28.9421 44.0345 28.9932 44.4644 29.0187V23.3219C44.4644 22.1316 44.8446 22.0308 45.4775 22.7389C47.2509 24.7649 49.453 27.2465 50.794 29.0187C51.2507 28.9932 51.6807 28.9421 52.1872 28.9421C52.6427 28.9421 53.0229 28.9932 53.5537 29.0187V28.8656C51.3515 26.3598 49.0218 23.5746 46.9957 21.2461C49.5538 18.8156 52.0099 16.8661 53.1237 15.8786V15.6744C52.6937 15.6999 52.3646 15.751 52.0354 15.751C51.6552 15.751 51.2763 15.6999 50.9216 15.6744L48.7437 18.0807L47.0213 19.8286C46.6678 20.1821 45.1738 21.7769 44.592 21.4745C44.3381 21.3214 44.4644 20.9169 44.4644 20.5623V8.07922V8.0805ZM57.8584 15.7012C57.4285 15.7267 57.0993 15.7778 56.7446 15.7778C56.3644 15.7778 55.9855 15.7267 55.6308 15.7012V29.0187C55.9855 28.9932 56.3644 28.9421 56.7446 28.9421C57.0993 28.9421 57.4527 28.9932 57.8584 29.0187V15.7012ZM58.1621 10.9167C58.1621 10.1308 57.5037 9.49798 56.7446 9.49798C56.5584 9.49781 56.374 9.53436 56.202 9.60554C56.0299 9.67672 55.8736 9.78112 55.7419 9.91278C55.6103 10.0444 55.5059 10.2008 55.4347 10.3728C55.3635 10.5449 55.3269 10.7293 55.3271 10.9155C55.3269 11.1016 55.3635 11.2858 55.4346 11.4578C55.5056 11.6298 55.6099 11.7861 55.7415 11.9177C55.873 12.0493 56.0292 12.1538 56.2011 12.225C56.373 12.2963 56.5572 12.3329 56.7433 12.3329C57.4782 12.3585 58.1621 11.7001 58.1621 10.9167ZM60.2379 29.0187C60.5926 28.9932 60.9728 28.9421 61.3517 28.9421C61.7064 28.9421 62.0611 28.9932 62.4668 29.0187V22.5628C62.4668 19.1435 63.2005 16.9924 66.112 16.9924C68.7198 16.9924 69.2008 19.0172 69.2008 21.6251V29.0187C69.5555 28.9932 69.9357 28.9421 70.3147 28.9421C70.6694 28.9421 71.024 28.9932 71.4285 29.0187V20.968C71.4285 17.2961 70.1884 15.5239 66.9477 15.5239C64.9726 15.5239 63.4288 16.5369 62.4668 18.2325V15.7012C62.0611 15.7267 61.7064 15.7778 61.3517 15.7778C60.9728 15.7778 60.5926 15.7267 60.2379 15.7012V29.0187ZM79.2266 28.7903C81.3279 28.7903 83.3285 28.9932 83.3285 31.8792C83.3285 34.487 80.9235 35.449 78.9229 35.449C76.6187 35.449 74.9231 34.3352 74.9231 32.0807C74.8976 29.8288 76.315 28.7648 79.2266 28.7903ZM85.1261 15.5992C84.4678 15.7012 83.7839 15.7523 83.1256 15.6502L79.2521 15.4984C75.1757 15.3453 73.6319 17.2208 73.6319 19.9294C73.6319 21.9797 74.6692 23.1446 76.3406 23.9037C75.2523 24.3847 74.4166 24.9678 74.4166 26.3087C74.4166 28.0056 75.3033 28.4356 76.1135 28.5632V28.7903C74.391 29.094 73.2262 30.158 73.2262 32.1586C73.2262 35.0943 75.9859 36.2592 78.2658 36.2592C82.5183 36.2592 85.3545 34.0315 85.3545 30.7653C85.3545 28.3858 83.8107 27.0692 80.5445 27.0692H78.7711C77.0997 27.0692 76.0879 26.8905 76.0879 25.7269C76.0879 24.1066 77.7593 24.3847 78.0872 24.3847C81.3279 24.3847 84.0123 23.0936 84.0123 20.0557C84.0123 18.4864 83.2277 17.2705 82.0883 16.3851L85.1504 16.6377V15.5992H85.1261ZM75.7333 19.9294C75.7333 17.8026 76.8726 16.283 78.8719 16.283C81.0753 16.283 81.8599 17.9289 81.8599 20.0813C81.8599 21.9797 80.7971 23.7264 78.7724 23.7264C76.7463 23.7264 75.6567 21.9045 75.7333 19.9294ZM103.153 9.5235H102.52L93.8109 29.0187C94.1146 28.9932 94.4183 28.9421 94.7972 28.9421C95.1264 28.9421 95.4313 28.9932 95.8357 29.0187C96.6204 26.4108 97.6092 23.9535 98.5954 21.4987H105.684C106.799 24.0301 107.811 26.7145 108.621 29.0187C109.102 28.9932 109.559 28.9421 110.09 28.9421C110.571 28.9421 111.002 28.9932 111.533 29.0187L103.154 9.52222L103.153 9.5235ZM105.229 20.3084H99.1019L102.14 13.1686L105.229 20.3084ZM113.584 29.0187C113.939 28.9932 114.318 28.9421 114.698 28.9421C115.053 28.9421 115.407 28.9932 115.812 29.0187V8.07922C115.382 8.10474 115.053 8.15578 114.698 8.15578C114.318 8.15578 113.939 8.10474 113.584 8.07922V29.0161V29.0187ZM120.42 22.7146C120.42 20.131 121.256 16.4604 124.497 16.4604C127.509 16.4604 128.345 19.2711 128.345 22.0053C128.345 25.2459 127.332 28.0567 124.521 28.0567C121.66 28.0822 120.42 25.7014 120.42 22.7146ZM120.42 26.5626H120.471C121.382 28.2851 122.749 29.2458 124.749 29.2458C128.319 29.2458 130.775 26.4861 130.775 21.9287C130.775 18.5872 128.775 15.5494 125.179 15.5494C121.812 15.5494 120.951 17.5742 120.471 18.5362H120.42V15.7267C119.989 15.7523 119.66 15.8033 119.306 15.8033C118.926 15.8033 118.546 15.7523 118.191 15.7267V36.1839C118.546 36.1584 118.926 36.1074 119.306 36.1074C119.66 36.1074 119.989 36.1584 120.42 36.1839V26.5626ZM133.155 29.0187C133.509 28.9932 133.89 28.9421 134.269 28.9421C134.623 28.9421 134.978 28.9932 135.384 29.0187V21.4477C135.384 18.5362 136.523 16.9924 139.029 16.9924C141.408 16.9924 142.118 18.5362 142.118 21.6251V29.0187C142.472 28.9932 142.853 28.9421 143.231 28.9421C143.586 28.9421 143.941 28.9932 144.345 29.0187V20.968C144.345 17.4479 143.08 15.5239 139.864 15.5239C137.889 15.5239 136.346 16.5369 135.384 18.2325V8.07922C134.952 8.10474 134.623 8.15578 134.269 8.15578C133.89 8.15578 133.509 8.10474 133.155 8.07922V29.0161V29.0187ZM156.625 20.2076C156.625 17.0689 155.031 15.5239 152.118 15.5239C150.472 15.5239 148.979 16.1312 147.637 17.0677V18.637H147.941C148.144 18.0297 149.232 16.7143 151.258 16.7143C153.359 16.7143 154.524 17.9034 154.524 19.9805C154.524 21.3214 153.764 21.4732 151.562 21.8534C148.928 22.2834 146.397 22.6891 146.397 25.8788C146.397 27.9291 148.119 29.2726 150.093 29.2726C151.764 29.2726 153.056 28.6895 154.22 27.5246L154.473 27.2707C154.701 28.9166 155.891 29.145 157.334 28.8911C157.638 28.8401 157.966 28.6895 158.169 28.613V28.0056C156.523 28.3603 156.6 27.8028 156.6 26.7145V20.2076H156.625ZM154.397 26.1569C154.397 26.3611 153.84 26.8153 153.637 27.0181C153.105 27.5502 152.17 28.0822 151.41 28.0822C149.713 28.0822 148.676 27.221 148.676 25.4743C148.676 22.9417 151.511 22.6636 153.409 22.2847L154.372 22.0805V26.1556H154.398L154.397 26.1569Z" fill="white"/>
<path d="M161.766 9.5218C161.766 13.3188 163.665 16.4587 166.197 16.3834C169.741 16.2813 170.78 13.2945 170.78 9.49629C170.78 5.69805 168.728 2.58494 166.197 2.60918C163.083 2.6347 161.766 5.72356 161.766 9.5218ZM159.006 9.5218C159.538 1.39456 165.919 1.21594 165.919 1.21594C170.552 1.24146 171.868 6.17905 171.868 6.17905C171.945 6.45846 174.628 1.57191 174.628 1.57191H176.146C173.033 8.28039 173.16 11.0158 173.16 11.0158C172.906 14.6355 174.932 15.8769 174.932 15.8769C176.83 17.0915 176.958 13.5471 176.958 13.5471C177.388 13.394 177.64 13.2435 177.64 13.2435C178.653 18.1556 175.616 17.8264 175.616 17.8264C173.26 18.079 172.247 14.231 172.247 14.231C168.906 18.6366 165.058 17.6746 165.058 17.6746C158.474 16.8644 159.006 9.5218 159.006 9.5218Z" fill="white"/>
</svg>
