<svg width="191" height="41" viewBox="0 0 191 41" fill="none" xmlns="http://www.w3.org/2000/svg">
<g clip-path="url(#clip0_644_1415)">
<path d="M96.0095 39.0204H99.4545V1.12987H96.0095V39.0204Z" fill="white"/>
<path d="M143.477 1.12994H154.475V4.28757H150.735V39.0204H147.273V4.28757H143.477V1.12994Z" fill="white"/>
<path d="M92.8582 1.12994V39.0204H89.2488L84.0861 16.0048V39.0204H80.7012V1.12994H83.8157L89.4725 26.2234V1.12994H92.8582Z" fill="white"/>
<path d="M17.9075 1.12994V39.0204H14.5215V6.54057L10.3423 39.0204H7.52069L3.40942 6.54057V39.0204H0V1.12994H5.76677L9.06881 23.9704L12.1836 1.12994H17.9075Z" fill="white"/>
<path d="M59.8878 39.0303C62.5681 35.3912 64.1517 30.8986 64.1517 26.0302C64.1517 13.9206 54.3331 4.10122 42.2227 4.10122C30.1107 4.10122 20.291 13.9206 20.291 26.0302C20.291 30.8952 21.8733 35.3939 24.5512 39.0303H29.1125C25.8012 35.691 23.7554 31.1052 23.7554 26.0302C23.7554 15.8334 32.0228 7.56488 42.2227 7.56488C52.4202 7.56488 60.6891 15.8334 60.6891 26.0302C60.6891 31.0982 58.6471 35.691 55.3423 39.0303H59.8878Z" fill="white"/>
<path d="M162.38 27.0599L160.087 6.17061L157.975 27.0599H162.38ZM166.954 39.0204H163.583L162.695 30.4849H157.651L156.828 39.0204H153.393L157.275 1.12994H162.53L166.954 39.0204Z" fill="white"/>
<path d="M125.775 34.2038C125.775 35.9135 124.773 36.7839 123.622 36.7839C122.473 36.7839 121.469 35.9135 121.469 34.2038V5.58727C121.469 3.881 122.473 3.00889 123.622 3.00889C124.773 3.00889 125.775 3.881 125.775 5.58727L125.768 6.95533V14.0988H129.234V8.59114L129.226 7.00061C129.202 2.27764 127.355 0.0281029 123.502 0.0281029C120.069 0.0281029 117.836 2.46209 117.836 6.19827L117.839 7.5895V31.3076L117.836 32.8412C117.836 37.694 119.723 40.0635 123.586 40.0635C127.439 40.0635 129.234 37.7372 129.234 32.741V18.9562H122.869V22.2744H125.768V32.9472L125.775 34.2038Z" fill="white"/>
<path d="M139.984 33.2941V23.4433L132.084 17.5449V6.53714C132.084 2.21101 134.034 -0.00298309 137.847 -0.00298309C141.716 -0.00298309 143.476 2.19412 143.503 7.05591L143.512 8.56774V14.1503H139.984V6.66111L139.973 5.58696C139.973 3.88068 138.979 3.00858 137.844 3.00858C136.704 3.00858 135.711 3.88068 135.711 5.58696V15.9026L143.512 21.791V33.1835C143.512 37.6402 141.529 40.0234 137.823 40.0234C134.071 40.0234 132.118 37.7732 132.094 33.4305L132.084 31.9308V24.5168H135.711V34.2035C135.711 35.9132 136.704 36.7836 137.844 36.7836C138.979 36.7836 139.973 35.9132 139.973 34.2035L139.984 33.2941Z" fill="white"/>
<path d="M69.9125 4.11277V19.1168H71.1283C73.3595 19.1168 74.4095 18.0927 74.4095 15.9178V8.19608C74.4095 5.08576 73.69 4.11277 71.3873 4.11277H69.9125ZM78.6044 39.0204H75.1522C74.679 37.7435 74.4717 36.5473 74.4499 34.944L74.4224 33.0043L74.4095 32.0244V24.627C74.4095 23.074 73.4648 22.3677 72.3742 22.3677H69.9125V39.0204H66.5293V1.12994H70.9424C75.9 1.12994 77.8083 2.94188 77.8083 7.79129V14.9047C77.8083 18.0921 77.2746 19.4301 74.7808 20.3499C74.8161 20.3613 74.8506 20.3741 74.8862 20.3851C77.2408 21.0729 77.7685 21.9674 77.7951 24.9541L77.8083 26.3304V33.2481C77.8083 35.7674 77.9972 37.1335 78.6044 39.0204Z" fill="white"/>
<path d="M171.237 4.11277V19.1168H172.454C174.687 19.1168 175.735 18.0927 175.735 15.9178V8.19608C175.735 5.08576 175.016 4.11277 172.71 4.11277H171.237ZM179.928 39.0204H176.476C176.002 37.7435 175.796 36.5473 175.773 34.944L175.745 33.0043L175.735 32.0244V24.627C175.735 23.074 174.788 22.3677 173.696 22.3677H171.237V39.0204H167.854V1.12994H172.267C177.226 1.12994 179.131 2.94188 179.131 7.79129V14.9047C179.131 18.0921 178.599 19.4301 176.107 20.3499C176.14 20.3613 176.177 20.3741 176.209 20.3851C178.562 21.0729 179.095 21.9674 179.119 24.9541L179.131 26.3304V33.2481C179.131 35.7674 179.322 37.1335 179.928 39.0204Z" fill="white"/>
<path d="M114.71 1.12994V39.0204H111.099L105.941 16.0048V39.0204H102.555V1.12994H105.671L111.323 26.2234V1.12994H114.71Z" fill="white"/>
<path d="M182.903 4.95817C182.903 2.8464 184.618 1.12871 186.729 1.12871C188.843 1.12871 190.557 2.8464 190.557 4.95817C190.557 7.07022 188.843 8.78826 186.729 8.78826C184.618 8.78826 182.903 7.07022 182.903 4.95817ZM182.463 4.95817C182.463 7.3117 184.375 9.22656 186.729 9.22656C189.082 9.22656 190.998 7.3117 190.998 4.95817C190.998 2.60527 189.082 0.690408 186.729 0.690408C184.375 0.690408 182.463 2.60527 182.463 4.95817Z" fill="white"/>
<path d="M185.795 4.81672H187.054C187.575 4.81672 187.941 4.64987 187.941 4.08927C187.941 3.53221 187.575 3.36121 187.054 3.36121H185.795V4.81672ZM185.238 2.87524H187.141C187.804 2.87524 188.498 3.1291 188.498 4.08927C188.498 4.62741 188.254 5.14689 187.521 5.26608L188.681 7.08704H188.008L186.872 5.30092H185.795V7.08704H185.238V2.87524Z" fill="white"/>
</g>
<defs>
<clipPath id="clip0_644_1415">
<rect width="191" height="40.0639" fill="white"/>
</clipPath>
</defs>
</svg>
