<svg width="189" height="95" viewBox="0 0 189 95" fill="none" xmlns="http://www.w3.org/2000/svg">
<path d="M15.6133 35.2165H24.3451V32.2095H23.4777C23.1886 32.2095 22.8416 31.7469 22.8416 31.5156V21.9742C22.8416 21.685 23.2464 21.2803 23.4777 21.2803H24.3451V18.1576H15.6133V21.2803H16.4229C16.7698 21.2803 17.1168 21.7429 17.1168 21.9742V31.4578C17.1168 31.7469 16.712 32.1517 16.4229 32.1517H15.6133V35.2165ZM24.9234 35.2165H32.8457V32.2095H31.4V26.1955C31.8048 26.1377 32.0939 26.1377 32.383 26.1377C33.4239 26.1377 33.9444 26.3112 33.9444 27.2364V35.1587H40.2475V32.1517H39.8427C39.5536 32.1517 39.2066 31.7469 39.2066 31.5156V25.1546C39.2066 22.7837 37.5875 22.0898 35.8527 22.0898C34.1178 22.0898 32.383 22.9572 31.2265 24.1138C31.1109 22.7259 30.7639 22.3211 30.3013 22.3211H24.7499V25.5016H25.4438C25.733 25.5016 26.0799 25.9064 26.0799 26.1377V31.5734C26.0799 31.7469 25.6751 32.2095 25.4438 32.2095H24.8077C24.9234 32.2673 24.9234 35.2165 24.9234 35.2165ZM40.3631 25.6173H41.6353V31.8047C41.6353 34.8117 43.5436 35.5635 46.3771 35.5635C49.2106 35.5635 48.5167 35.39 49.2106 35.1587V32.2673H48.5745C47.418 32.2673 47.071 31.9204 47.071 30.8217V25.6751H49.1528V22.4946H47.071V19.0828H41.751V22.4368H40.4788L40.3631 25.6173ZM62.7999 29.9543C62.7999 29.7808 62.7999 29.3182 62.7999 28.6821C62.7999 24.1716 60.7182 22.2055 56.439 22.2055C52.1598 22.2055 49.4998 24.8077 49.4998 28.8556C49.4998 32.9034 51.5237 35.39 56.4968 35.39C61.4699 35.39 61.123 34.8695 62.3373 34.2335V31.2265H59.5038C58.9834 31.8626 58.4051 32.2673 57.0751 32.2673C55.7451 32.2673 54.9933 31.5734 54.8777 29.9543H62.7421H62.7999ZM56.5546 25.1546C57.4799 25.1546 57.8847 25.7907 58.0003 27.3521H54.9355C55.1668 25.8486 55.5716 25.1546 56.5546 25.1546ZM63.6095 35.2165H71.4161V32.2095H70.0861V26.7738C70.78 26.6003 71.9366 26.369 73.5557 26.369H74.134V22.4368C73.7292 22.3211 73.5557 22.3211 73.4401 22.3211C71.8209 22.3211 70.9535 23.1307 70.0861 24.2294C69.9704 22.8416 69.6235 22.4368 69.1609 22.4368H63.6095V25.6173H64.3034C64.5926 25.6173 64.9395 26.022 64.9395 26.2534V31.6891C64.9395 31.9782 64.5347 32.3252 64.3034 32.3252H63.6673V35.2165H63.6095ZM74.8857 35.2165H82.808V32.2095H81.3623V26.1955C81.7671 26.1377 82.0562 26.1377 82.3454 26.1377C83.3863 26.1377 83.9067 26.3112 83.9067 27.2364V35.1587H90.2098V32.1517H89.805C89.5159 32.1517 89.1689 31.7469 89.1689 31.5156V25.1546C89.1689 22.7837 87.5498 22.0898 85.815 22.0898C84.0802 22.0898 82.3454 22.9572 81.2467 24.1138C81.131 22.7259 80.784 22.3211 80.3214 22.3211H74.7701V25.5016H75.464C75.7531 25.5016 76.1001 25.9064 76.1001 26.1377V31.5734C76.1001 31.7469 75.6953 32.2095 75.464 32.2095H74.8279C74.8857 32.2673 74.8857 35.2165 74.8857 35.2165ZM94.7781 35.39C96.3395 35.39 97.5538 34.9274 98.4212 33.8865C98.8838 34.8117 99.6934 35.39 101.313 35.39C102.932 35.39 103.51 35.1009 104.32 34.6961V32.2095H103.857C103.568 32.2095 103.279 31.8047 103.279 31.5734V26.4847C103.279 23.4777 101.486 22.1477 97.496 22.1477C93.506 22.1477 92.8699 22.6103 91.482 23.0151V26.6003H93.6216C94.142 26.1377 94.7781 25.7329 96.1082 25.7329C97.4382 25.7329 97.9008 26.1955 97.9008 27.0629V27.7569C97.2069 27.6412 96.5129 27.5834 95.5877 27.5834C92.5807 27.5834 90.6724 28.7399 90.6724 31.5734C90.7881 34.2335 92.5807 35.39 94.7781 35.39ZM96.9177 32.383C96.2816 32.383 95.7612 32.0939 95.7612 31.2265C95.7612 30.3591 96.2238 29.9543 97.0912 29.9543C97.9586 29.9543 97.7851 30.0121 98.0743 30.0699V32.036C97.7273 32.2673 97.3803 32.383 96.9177 32.383ZM104.493 25.6173H105.765V31.8047C105.765 34.8117 107.674 35.5635 110.507 35.5635C113.341 35.5635 112.647 35.39 113.341 35.1587V32.2673H112.647C111.49 32.2673 111.143 31.9204 111.143 30.8217V25.6751H113.225V22.4946H111.143V19.0828H105.823V22.4368H104.551V25.6173H104.493ZM113.861 35.2165H121.61V32.2095H120.974C120.685 32.2095 120.338 31.8047 120.338 31.5734V23.6512C120.338 22.8416 120.048 22.379 119.644 22.379H113.803V25.5594H114.497C114.786 25.5594 115.075 25.9642 115.075 26.1955V31.6312C115.075 31.9204 114.728 32.2673 114.497 32.2673H113.861V35.1587V35.2165ZM117.678 21.9742C119.123 21.9742 120.106 21.1068 120.106 19.7768C120.106 18.4467 119.123 17.4637 117.678 17.4637C116.232 17.4637 115.249 18.3889 115.249 19.7768C115.249 21.1646 116.29 21.9742 117.678 21.9742ZM129.185 35.4478C133.349 35.4478 136.413 33.0191 136.413 28.9134C136.413 24.8077 133.406 22.2633 129.185 22.2633C124.964 22.2633 122.015 24.8655 122.015 28.9134C122.072 32.9613 125.079 35.4478 129.185 35.4478ZM129.185 32.2673C128.086 32.2673 127.335 31.2265 127.335 28.8556C127.335 26.4847 128.029 25.5016 129.185 25.5016C130.342 25.5016 131.036 26.4847 131.036 28.8556C131.093 31.2843 130.284 32.2673 129.185 32.2673ZM136.934 35.2165H144.856V32.2095H143.41V26.1955C143.815 26.1377 144.104 26.1377 144.394 26.1377C145.434 26.1377 145.955 26.3112 145.955 27.2364V35.1587H152.258V32.1517H151.853C151.564 32.1517 151.217 31.7469 151.217 31.5156V25.1546C151.217 22.7837 149.598 22.0898 147.863 22.0898C146.128 22.0898 144.394 22.9572 143.237 24.1138C143.121 22.7259 142.774 22.3211 142.312 22.3211H136.76V25.5016H137.454C137.743 25.5016 138.09 25.9064 138.09 26.1377V31.5734C138.09 31.7469 137.686 32.2095 137.454 32.2095H136.818C136.934 32.2673 136.934 35.2165 136.934 35.2165ZM156.826 35.39C158.388 35.39 159.602 34.9274 160.469 33.8865C160.932 34.8117 161.742 35.39 163.361 35.39C164.98 35.39 165.558 35.1009 166.368 34.6961V32.2095H165.905C165.616 32.2095 165.327 31.8047 165.327 31.5734V26.4847C165.327 23.4777 163.534 22.1477 159.544 22.1477C155.554 22.1477 154.918 22.6103 153.53 23.0151V26.6003H155.67C156.19 26.1377 156.826 25.7329 158.156 25.7329C159.486 25.7329 159.949 26.1955 159.949 27.0629V27.7569C159.255 27.6412 158.561 27.5834 157.636 27.5834C154.629 27.5834 152.721 28.7399 152.721 31.5734C152.894 34.2335 154.745 35.39 156.826 35.39ZM159.024 32.383C158.33 32.383 157.867 32.0939 157.867 31.2265C157.867 30.3591 158.33 29.9543 159.197 29.9543C160.065 29.9543 159.891 30.0121 160.18 30.0699V32.036C159.775 32.2673 159.428 32.383 159.024 32.383ZM167.004 35.2165H174.868V32.2095H174.174C173.885 32.2095 173.596 31.8047 173.596 31.5734V19.2563C173.596 18.6202 173.249 18.2154 172.902 18.2154H167.004V21.3381H167.698C167.987 21.3381 168.276 21.7429 168.276 21.9742V31.5734C168.276 31.8626 167.929 32.2095 167.698 32.2095H167.004V35.1587V35.2165ZM15.6133 56.9016H23.8825C28.4508 56.9016 31.2843 55.2824 31.2843 51.9863C31.2843 48.6901 29.8965 48.4588 27.4099 48.0541V47.9384C29.4917 47.418 30.8217 46.4349 30.8217 44.3531C30.8217 41.404 28.393 39.9583 23.8825 39.9583H15.6711V43.0231H16.365C16.712 43.0231 17.059 43.4857 17.059 43.717V53.2006C17.059 53.4898 16.6542 53.8946 16.365 53.8946H15.6711V56.8437L15.6133 56.9016ZM22.5525 53.7789V49.731H23.4777C24.9812 49.731 25.5595 50.3671 25.5595 51.755C25.5595 53.1428 24.9812 53.8367 23.4777 53.8367H22.5525V53.7789ZM22.5525 43.1388H23.4199C24.8077 43.1388 25.3282 43.7749 25.3282 44.9892C25.3282 46.2036 24.7499 46.8397 23.4199 46.8397H22.5525V43.1388ZM36.1418 57.1329C38.2236 57.1329 39.5536 56.3233 40.6523 55.1667C40.7679 56.5546 41.1727 56.9594 41.5775 56.9594H47.0132V53.9524H46.435C46.1458 53.9524 45.8567 53.5476 45.8567 53.3163V44.1797H39.3223V47.3601H40.5944V53.2585C40.1897 53.3163 39.9005 53.3741 39.6692 53.3741C38.6283 53.3741 38.1079 53.2006 38.1079 52.2176V44.2375H31.747V47.418H32.2674C32.4409 47.418 32.8457 47.8227 32.8457 48.0541V54.1259C32.73 56.4968 34.407 57.1329 36.1418 57.1329ZM52.9116 57.1329C57.1907 57.1329 58.9834 55.5137 58.9834 52.5645C58.9834 49.6154 57.3642 48.8058 54.1259 48.4588C52.6224 48.2854 52.1598 48.1119 52.1598 47.7649C52.1598 47.418 52.5646 47.071 53.6055 47.071C54.6464 47.071 55.2246 47.418 55.6872 47.9384H58.4629V44.5844C57.1907 44.1797 55.8029 43.9484 53.4898 43.9484C49.9624 43.9484 47.5915 45.3362 47.5915 48.2854C47.5915 51.2345 49.2106 52.1598 51.9863 52.4489C53.6055 52.6224 54.0681 52.7958 54.0681 53.3163C54.0681 53.8367 53.4898 54.0102 52.6224 54.0102C51.755 54.0102 50.772 53.5476 50.425 52.9115H47.5915V56.4389C48.748 56.7281 50.3093 57.1329 52.9116 57.1329ZM59.7351 56.9016H67.4839V53.8946H66.8478C66.5587 53.8946 66.2117 53.4898 66.2117 53.2585V45.3362C66.2117 44.5266 65.9226 44.064 65.5178 44.064H59.6773V47.2445H60.3712C60.6603 47.2445 60.9495 47.6493 60.9495 47.8806V53.3163C60.9495 53.6054 60.6025 53.9524 60.3712 53.9524H59.7351V56.9016ZM63.5517 43.6592C64.9973 43.6592 66.0382 42.7918 66.0382 41.4618C66.0382 40.1318 65.0552 39.1487 63.5517 39.1487C62.0482 39.1487 61.123 40.074 61.123 41.4618C61.123 42.6762 62.1638 43.6592 63.5517 43.6592ZM68.12 56.9016H75.9844V53.8946H74.5388V47.8806C74.9436 47.8227 75.2327 47.8227 75.5218 47.8227C76.5627 47.8227 77.0831 47.9962 77.0831 48.9215V56.8437H83.3863V53.8367H82.9815C82.6923 53.8367 82.3454 53.4319 82.3454 53.2006V46.8397C82.3454 44.4688 80.7262 43.7749 78.9914 43.7749C77.2566 43.7749 75.5218 44.6423 74.3653 45.7988C74.2496 44.411 73.9027 44.0062 73.4401 44.0062H67.8887V47.1867H68.5826C68.8717 47.1867 69.2187 47.5914 69.2187 47.8227V53.2585C69.2187 53.4319 68.8139 53.8946 68.5826 53.8946H67.9465C68.12 53.9524 68.12 56.9016 68.12 56.9016ZM97.0334 51.6393C97.0334 51.4658 97.0912 51.0032 97.0912 50.3671C97.0912 45.8566 95.0673 43.8905 90.7303 43.8905C86.3932 43.8905 83.791 46.4927 83.791 50.5406C83.791 54.5885 85.815 57.075 90.7881 57.075C95.7612 57.075 95.4142 56.5546 96.5708 55.9185V52.9115H93.7373C93.2168 53.5476 92.6385 53.9524 91.3085 53.9524C89.9785 53.9524 89.2268 53.2585 89.1111 51.6393H97.0334ZM90.7881 46.8397C91.7133 46.8397 92.1181 47.4758 92.2338 49.0371H89.1689C89.3424 47.5336 89.805 46.8397 90.7881 46.8397ZM103.163 57.1329C107.442 57.1329 109.235 55.5137 109.235 52.5645C109.235 49.6154 107.616 48.8058 104.377 48.4588C102.874 48.2854 102.469 48.1119 102.469 47.7649C102.469 47.418 102.874 47.071 103.915 47.071C104.956 47.071 105.534 47.418 105.939 47.9384H108.714V44.5844C107.442 44.1797 106.054 43.9484 103.741 43.9484C100.214 43.9484 97.843 45.3362 97.843 48.2854C97.843 51.2345 99.4621 52.1598 102.238 52.4489C103.857 52.6224 104.32 52.7958 104.32 53.3163C104.32 53.8367 103.741 54.0102 102.874 54.0102C102.006 54.0102 100.966 53.5476 100.676 52.9115H97.843V56.4389C98.9417 56.7281 100.503 57.1329 103.163 57.1329ZM115.133 57.1329C119.412 57.1329 121.205 55.5137 121.205 52.5645C121.205 49.6154 119.586 48.8058 116.348 48.4588C114.844 48.2854 114.381 48.1119 114.381 47.7649C114.381 47.418 114.786 47.071 115.827 47.071C116.868 47.071 117.446 47.418 117.909 47.9384H120.685V44.5844C119.412 44.1797 118.025 43.9484 115.711 43.9484C112.184 43.9484 109.813 45.3362 109.813 48.2854C109.813 51.2345 111.432 52.1598 114.208 52.4489C115.827 52.6224 116.29 52.7958 116.29 53.3163C116.29 53.8367 115.711 54.0102 114.844 54.0102C113.977 54.0102 112.994 53.5476 112.647 52.9115H109.813V56.4389C111.027 56.7281 112.589 57.1329 115.133 57.1329ZM19.1407 78.3553H27.7569V75.3483H26.9473C26.6004 75.3483 26.2534 74.8857 26.2534 74.6544V64.6503H27.6412L28.046 67.773H31.4578V61.412H15.6133V67.773H19.0251L19.4298 64.6503H20.8177V74.6544C20.8177 74.9435 20.4129 75.3483 20.1238 75.3483H19.3142L19.1407 78.3553ZM32.1517 78.3553H39.9005V75.3483H39.2644C38.9753 75.3483 38.6283 74.9435 38.6283 74.7122V66.7899C38.6283 65.9804 38.3392 65.5177 37.9344 65.5177H32.0939V68.6982H32.7878C33.077 68.6982 33.3661 69.103 33.3661 69.3343V74.77C33.3661 75.0592 33.0191 75.4061 32.7878 75.4061H32.1517V78.3553ZM35.9683 65.113C37.414 65.113 38.4549 64.2456 38.4549 62.9155C38.4549 61.5855 37.4718 60.6025 35.9683 60.6025C34.4648 60.6025 33.5396 61.5277 33.5396 62.9155C33.5974 64.1299 34.5805 65.113 35.9683 65.113ZM40.5366 78.3553H48.1698V75.3483H47.071V69.3343C47.4758 69.2765 47.765 69.2765 47.9963 69.2765C49.095 69.2765 49.3263 69.45 49.3263 70.3752V78.2975H55.6872V75.2905H54.5885V69.2765C54.9933 69.2187 55.2824 69.2187 55.5138 69.2187C56.6125 69.2187 56.7859 69.3921 56.7859 70.3174V78.2396H63.0891V75.2327H62.6843C62.3951 75.2327 62.0482 74.8279 62.0482 74.5965V68.2356C62.0482 65.8647 60.4869 65.1708 58.7521 65.1708C57.0173 65.1708 55.3981 66.1538 54.415 67.2526C54.0103 65.6334 52.6224 65.1708 51.2346 65.1708C49.2106 65.1708 47.8806 66.1538 46.8976 67.2526C46.7819 65.7491 46.435 65.3443 45.9723 65.3443H40.421V68.5247H41.1149C41.404 68.5247 41.751 68.9295 41.751 69.1608V74.5965C41.751 74.77 41.3462 75.2327 41.1149 75.2327H40.4788V78.2975C40.3631 78.3553 40.4788 78.3553 40.4788 78.3553H40.5366ZM76.6205 73.0931C76.6205 72.9196 76.6205 72.457 76.6205 71.8209C76.6205 67.3104 74.5966 65.3443 70.2596 65.3443C65.9226 65.3443 63.3204 67.9465 63.3204 71.9943C63.3204 76.0422 65.3443 78.5288 70.3174 78.5288C75.2905 78.5288 74.9436 78.0083 76.1001 77.3722V74.3652H73.2666C72.7461 75.0013 72.1679 75.4061 70.8379 75.4061C69.5078 75.4061 68.7561 74.7122 68.6404 73.0931H76.5627H76.6205ZM70.3174 68.2934C71.2426 68.2934 71.6474 68.9295 71.7631 70.4908H68.6983C68.8717 68.9874 69.3922 68.2934 70.3174 68.2934ZM82.7502 78.5866C87.0294 78.5866 88.822 76.9674 88.822 74.0183C88.822 71.0691 87.2028 70.2595 83.9645 69.9126C82.461 69.7391 82.0562 69.5656 82.0562 69.2187C82.0562 68.8717 82.461 68.5247 83.5019 68.5247C84.5428 68.5247 85.1211 68.8717 85.5258 69.3921H88.3015V66.0382C87.0294 65.6334 85.6415 65.4021 83.3284 65.4021C79.801 65.4021 77.4301 66.7899 77.4301 69.7391C77.4301 72.6883 79.0493 73.6135 81.8249 73.9026C83.4441 74.0761 83.9067 74.2496 83.9067 74.77C83.9067 75.2905 83.3284 75.464 82.461 75.464C81.5936 75.464 80.5527 75.0013 80.2636 74.3652H77.4301V77.8927C78.5288 78.1818 80.0901 78.5866 82.7502 78.5866Z" fill="white"/>
</svg>
